<svg xmlns="http://www.w3.org/2000/svg" xmlns:xlink="http://www.w3.org/1999/xlink" width="500" zoomAndPan="magnify" viewBox="0 0 375 374.999991" height="500" preserveAspectRatio="xMidYMid meet" version="1.0"><path fill="#f6b8de" d="M 187.527344 254.5625 C 187.421875 254.5625 187.265625 254.507812 187.105469 254.457031 C 187 254.457031 186.894531 254.351562 186.789062 254.246094 C 186.789062 254.246094 186.738281 254.191406 186.738281 254.191406 L 177.722656 244.332031 L 164.332031 244.4375 C 163.910156 244.4375 163.59375 244.226562 163.433594 243.859375 L 154.261719 234.578125 L 140.867188 235.210938 C 140.867188 235.210938 140.867188 235.210938 140.761719 235.210938 C 140.65625 235.210938 140.550781 235.210938 140.394531 235.160156 C 140.234375 235.105469 140.183594 235.054688 140.078125 234.949219 C 139.972656 234.84375 139.867188 234.738281 139.8125 234.578125 C 139.8125 234.472656 139.707031 234.367188 139.761719 234.210938 C 139.761719 234.210938 139.761719 234.210938 139.761719 234.105469 L 140.394531 220.714844 L 131.113281 211.539062 C 130.746094 211.382812 130.535156 211.066406 130.535156 210.644531 L 130.640625 197.25 L 120.78125 188.234375 C 120.78125 188.234375 120.730469 188.183594 120.730469 188.183594 C 120.675781 188.128906 120.570312 188.023438 120.570312 187.917969 C 120.519531 187.761719 120.464844 187.601562 120.464844 187.496094 C 120.464844 187.390625 120.464844 187.179688 120.570312 187.074219 C 120.625 187.023438 120.675781 186.863281 120.730469 186.8125 C 120.730469 186.8125 120.730469 186.8125 120.78125 186.757812 L 130.640625 177.742188 L 130.535156 164.351562 C 130.535156 164.035156 130.640625 163.824219 130.851562 163.613281 C 130.851562 163.613281 130.851562 163.613281 130.90625 163.5625 L 140.445312 154.125 L 139.8125 140.734375 C 139.8125 140.734375 139.8125 140.734375 139.8125 140.628906 C 139.8125 140.523438 139.8125 140.417969 139.867188 140.257812 C 139.917969 140.101562 139.972656 140.046875 140.078125 139.941406 C 140.183594 139.835938 140.289062 139.730469 140.445312 139.679688 C 140.550781 139.679688 140.605469 139.625 140.761719 139.679688 C 140.761719 139.679688 140.761719 139.679688 140.867188 139.679688 L 154.261719 140.3125 L 163.699219 130.769531 C 163.804688 130.664062 163.910156 130.558594 164.015625 130.558594 C 164.171875 130.503906 164.277344 130.503906 164.382812 130.503906 L 177.773438 130.609375 L 186.789062 120.75 C 186.789062 120.75 186.789062 120.75 186.84375 120.699219 C 186.949219 120.59375 187 120.539062 187.160156 120.488281 C 187.316406 120.433594 187.476562 120.382812 187.582031 120.382812 C 187.6875 120.382812 187.84375 120.433594 188.003906 120.488281 C 188.109375 120.488281 188.214844 120.59375 188.265625 120.644531 C 188.265625 120.644531 188.265625 120.644531 188.320312 120.699219 L 197.335938 130.558594 L 210.726562 130.453125 C 210.832031 130.453125 210.992188 130.503906 211.097656 130.503906 C 211.253906 130.558594 211.308594 130.609375 211.414062 130.714844 L 220.847656 140.257812 L 234.242188 139.625 C 234.242188 139.625 234.347656 139.625 234.347656 139.625 C 234.453125 139.625 234.558594 139.625 234.714844 139.679688 C 234.875 139.730469 234.980469 139.835938 235.085938 139.941406 C 235.191406 140.046875 235.296875 140.152344 235.347656 140.3125 C 235.347656 140.417969 235.453125 140.523438 235.402344 140.679688 C 235.402344 140.679688 235.402344 140.679688 235.402344 140.785156 L 234.769531 154.175781 L 244.3125 163.613281 C 244.417969 163.71875 244.523438 163.824219 244.523438 163.929688 C 244.523438 164.035156 244.628906 164.140625 244.574219 164.300781 L 244.46875 177.691406 L 254.328125 186.707031 C 254.328125 186.707031 254.328125 186.707031 254.382812 186.757812 C 254.488281 186.863281 254.539062 186.917969 254.539062 187.023438 C 254.59375 187.179688 254.644531 187.339844 254.644531 187.445312 C 254.644531 187.550781 254.644531 187.761719 254.539062 187.867188 C 254.488281 187.917969 254.433594 188.078125 254.382812 188.128906 C 254.382812 188.128906 254.328125 188.183594 254.328125 188.183594 L 244.46875 197.199219 L 244.574219 210.589844 C 244.574219 210.695312 244.523438 210.855469 244.523438 210.960938 C 244.523438 211.066406 244.417969 211.171875 244.3125 211.277344 L 234.769531 220.714844 L 235.402344 234.105469 C 235.402344 234.105469 235.402344 234.105469 235.402344 234.210938 C 235.402344 234.316406 235.402344 234.421875 235.347656 234.578125 C 235.296875 234.738281 235.191406 234.84375 235.085938 234.949219 C 234.980469 235.054688 234.875 235.160156 234.714844 235.210938 C 234.609375 235.210938 234.453125 235.265625 234.347656 235.265625 C 234.347656 235.265625 234.347656 235.265625 234.242188 235.265625 L 220.847656 234.632812 L 211.414062 244.175781 C 211.203125 244.386719 210.992188 244.492188 210.675781 244.492188 L 197.28125 244.386719 L 188.265625 254.246094 C 188.265625 254.246094 188.265625 254.246094 188.214844 254.296875 C 188.109375 254.402344 188.054688 254.457031 187.949219 254.457031 C 187.84375 254.5625 187.738281 254.5625 187.527344 254.5625 Z M 178.195312 242.382812 C 178.511719 242.382812 178.722656 242.488281 178.933594 242.699219 L 187.527344 252.136719 L 196.121094 242.699219 C 196.332031 242.488281 196.597656 242.433594 196.859375 242.382812 L 210.304688 242.433594 L 219.796875 232.839844 C 220.007812 232.628906 220.324219 232.523438 220.535156 232.523438 L 233.34375 233.101562 L 232.765625 220.292969 C 232.765625 219.976562 232.871094 219.765625 233.082031 219.554688 L 242.625 210.117188 L 242.570312 196.671875 C 242.570312 196.355469 242.675781 196.144531 242.886719 195.933594 L 252.324219 187.339844 L 242.886719 178.746094 C 242.675781 178.535156 242.570312 178.324219 242.570312 178.007812 L 242.625 164.5625 L 233.082031 155.125 C 232.871094 154.914062 232.816406 154.652344 232.765625 154.386719 L 233.34375 141.574219 L 220.535156 142.15625 C 220.324219 142.15625 220.007812 142.050781 219.796875 141.839844 L 210.359375 132.296875 L 196.914062 132.351562 C 196.597656 132.351562 196.386719 132.246094 196.175781 132.035156 L 187.582031 122.597656 L 178.988281 132.035156 C 178.777344 132.246094 178.566406 132.351562 178.25 132.351562 L 164.804688 132.296875 L 155.367188 141.839844 C 155.15625 142.050781 154.839844 142.15625 154.628906 142.15625 L 141.816406 141.574219 L 142.398438 154.386719 C 142.398438 154.703125 142.292969 154.914062 142.082031 155.125 L 132.484375 164.617188 L 132.539062 178.058594 C 132.539062 178.375 132.433594 178.585938 132.222656 178.796875 L 122.785156 187.390625 L 132.222656 195.984375 C 132.433594 196.195312 132.539062 196.40625 132.539062 196.722656 L 132.484375 210.0625 L 142.082031 219.554688 C 142.292969 219.765625 142.34375 220.027344 142.398438 220.292969 L 141.816406 233.101562 L 154.628906 232.523438 C 154.894531 232.46875 155.15625 232.628906 155.367188 232.839844 L 164.859375 242.433594 Z M 178.195312 242.382812 " fill-opacity="1" fill-rule="nonzero"/><path fill="#f6b8de" d="M 196.914062 244.332031 C 196.914062 244.332031 196.808594 244.332031 196.808594 244.332031 C 196.492188 244.332031 196.175781 244.121094 196.070312 243.804688 C 196.015625 243.648438 188.265625 228.832031 197.652344 213.226562 C 197.703125 213.171875 197.757812 213.121094 197.863281 213.015625 C 198.125 212.75 198.441406 212.644531 198.8125 212.699219 C 216.472656 217.074219 221.324219 232.574219 221.535156 233.207031 C 221.640625 233.523438 221.585938 233.894531 221.375 234.105469 C 221.164062 234.316406 220.847656 234.527344 220.480469 234.472656 L 206.667969 233.3125 L 197.703125 243.859375 C 197.441406 244.226562 197.175781 244.386719 196.914062 244.332031 Z M 198.96875 214.859375 C 192.222656 226.566406 195.648438 237.691406 197.125 241.484375 L 205.402344 231.730469 C 205.402344 231.730469 205.402344 231.730469 205.453125 231.679688 C 205.558594 231.574219 205.664062 231.46875 205.824219 231.414062 C 205.980469 231.363281 206.085938 231.363281 206.191406 231.363281 C 206.191406 231.363281 206.191406 231.363281 206.296875 231.363281 L 219.058594 232.417969 C 217.421875 228.675781 211.9375 218.445312 198.96875 214.859375 Z M 178.300781 244.386719 C 177.984375 244.386719 177.722656 244.226562 177.511719 244.015625 L 168.546875 233.472656 L 154.734375 234.632812 C 154.417969 234.632812 154.101562 234.527344 153.839844 234.261719 C 153.628906 234.050781 153.574219 233.683594 153.679688 233.367188 C 153.890625 232.734375 158.742188 217.234375 176.402344 212.855469 C 176.773438 212.804688 177.140625 212.855469 177.351562 213.171875 C 177.40625 213.226562 177.457031 213.277344 177.5625 213.382812 C 187 228.9375 179.199219 243.804688 179.144531 243.964844 C 178.988281 244.226562 178.671875 244.4375 178.40625 244.492188 C 178.355469 244.332031 178.300781 244.386719 178.300781 244.386719 Z M 169.707031 231.785156 L 177.984375 241.539062 C 179.515625 237.691406 182.890625 226.617188 176.140625 214.914062 C 163.117188 218.445312 157.6875 228.726562 156.054688 232.46875 L 168.8125 231.414062 C 168.8125 231.414062 168.917969 231.414062 168.917969 231.414062 C 169.023438 231.414062 169.179688 231.46875 169.285156 231.46875 C 169.445312 231.519531 169.550781 231.625 169.707031 231.785156 Z M 233.714844 221.347656 C 233.609375 221.347656 233.503906 221.34375 233.449219 221.292969 C 232.816406 221.082031 217.316406 216.230469 212.941406 198.570312 C 212.886719 198.199219 212.941406 197.832031 213.257812 197.621094 C 213.308594 197.566406 213.363281 197.515625 213.46875 197.410156 C 229.023438 187.972656 243.890625 195.773438 244.046875 195.828125 C 244.3125 195.984375 244.523438 196.300781 244.574219 196.566406 C 244.574219 196.882812 244.46875 197.199219 244.257812 197.410156 L 233.714844 206.371094 L 234.875 220.1875 C 234.875 220.503906 234.769531 220.816406 234.503906 221.082031 C 234.1875 221.292969 233.976562 221.398438 233.714844 221.347656 Z M 215.050781 198.78125 C 218.582031 211.804688 228.863281 217.234375 232.605469 218.867188 L 231.550781 206.109375 C 231.550781 206.109375 231.5 206.054688 231.550781 206.003906 C 231.550781 205.898438 231.605469 205.738281 231.605469 205.632812 C 231.65625 205.476562 231.761719 205.371094 231.816406 205.316406 C 231.816406 205.316406 231.867188 205.265625 231.867188 205.265625 L 241.621094 196.988281 C 237.878906 195.457031 226.753906 192.03125 215.050781 198.78125 Z M 141.449219 221.347656 C 141.238281 221.34375 140.972656 221.292969 140.816406 221.136719 C 140.605469 220.925781 140.394531 220.609375 140.445312 220.238281 L 141.605469 206.425781 L 131.0625 197.460938 C 130.851562 197.25 130.640625 196.933594 130.746094 196.617188 C 130.746094 196.300781 130.957031 195.984375 131.273438 195.878906 C 131.429688 195.828125 146.246094 188.078125 161.851562 197.460938 C 161.90625 197.515625 161.957031 197.566406 162.0625 197.671875 C 162.328125 197.9375 162.433594 198.253906 162.378906 198.621094 C 158.003906 216.285156 142.503906 221.136719 141.871094 221.347656 C 141.660156 221.347656 141.554688 221.34375 141.449219 221.347656 Z M 143.609375 206.109375 L 142.554688 218.867188 C 146.300781 217.234375 156.582031 211.804688 160.113281 198.78125 C 148.410156 192.03125 137.285156 195.457031 133.488281 196.933594 L 143.242188 205.210938 C 143.242188 205.210938 143.292969 205.265625 143.292969 205.265625 C 143.398438 205.371094 143.503906 205.476562 143.503906 205.582031 C 143.609375 205.792969 143.609375 205.898438 143.609375 206.109375 Z M 229.96875 182.066406 C 225.015625 182.066406 219.269531 180.960938 213.414062 177.425781 C 213.363281 177.375 213.308594 177.320312 213.203125 177.214844 C 212.941406 176.953125 212.835938 176.636719 212.886719 176.269531 C 217.265625 158.605469 232.765625 153.753906 233.398438 153.542969 C 233.714844 153.4375 234.082031 153.492188 234.292969 153.703125 C 234.503906 153.914062 234.714844 154.230469 234.664062 154.597656 L 233.503906 168.410156 L 244.046875 177.375 C 244.257812 177.585938 244.46875 177.902344 244.363281 178.21875 C 244.363281 178.535156 244.152344 178.851562 243.835938 178.957031 C 243.890625 179.007812 238.089844 182.066406 229.96875 182.066406 Z M 215.101562 176.058594 C 226.808594 182.804688 237.933594 179.378906 241.726562 177.902344 L 231.972656 169.625 C 231.972656 169.625 231.921875 169.570312 231.921875 169.570312 C 231.816406 169.464844 231.710938 169.359375 231.710938 169.253906 C 231.65625 169.097656 231.65625 168.992188 231.65625 168.886719 C 231.65625 168.886719 231.710938 168.832031 231.65625 168.78125 L 232.710938 156.023438 C 228.863281 157.550781 218.636719 163.035156 215.101562 176.058594 Z M 145.191406 182.066406 C 137.074219 182.066406 131.273438 179.007812 131.167969 179.007812 C 130.90625 178.851562 130.695312 178.535156 130.640625 178.269531 C 130.640625 177.953125 130.746094 177.636719 130.957031 177.425781 L 141.5 168.464844 L 140.339844 154.652344 C 140.339844 154.335938 140.445312 154.019531 140.710938 153.753906 C 140.921875 153.542969 141.289062 153.492188 141.605469 153.597656 C 142.238281 153.808594 157.742188 158.660156 162.117188 176.320312 C 162.167969 176.691406 162.117188 177.058594 161.800781 177.269531 C 161.746094 177.320312 161.695312 177.375 161.589844 177.480469 C 155.894531 180.960938 150.09375 182.015625 145.191406 182.066406 Z M 133.488281 177.847656 C 137.335938 179.378906 148.410156 182.753906 160.113281 176.003906 C 156.582031 162.980469 146.300781 157.550781 142.554688 155.917969 L 143.609375 168.675781 C 143.609375 168.675781 143.664062 168.726562 143.609375 168.78125 C 143.609375 168.886719 143.558594 169.042969 143.558594 169.148438 C 143.503906 169.308594 143.398438 169.414062 143.347656 169.464844 C 143.347656 169.464844 143.292969 169.519531 143.292969 169.519531 Z M 176.667969 162.085938 C 176.5625 162.085938 176.507812 162.03125 176.402344 162.03125 C 158.742188 157.65625 153.890625 142.15625 153.679688 141.523438 C 153.574219 141.207031 153.628906 140.839844 153.839844 140.628906 C 154.050781 140.417969 154.367188 140.207031 154.734375 140.257812 L 168.546875 141.417969 L 177.511719 130.875 C 177.722656 130.664062 178.039062 130.453125 178.355469 130.558594 C 178.671875 130.558594 178.988281 130.769531 179.09375 131.085938 C 179.144531 131.242188 186.894531 146.058594 177.511719 161.664062 C 177.457031 161.714844 177.40625 161.769531 177.300781 161.875 C 177.195312 161.980469 176.984375 162.085938 176.667969 162.085938 Z M 156.105469 142.367188 C 157.742188 146.109375 163.171875 156.390625 176.191406 159.921875 C 182.941406 148.21875 179.515625 137.09375 178.039062 133.296875 L 169.761719 143.050781 C 169.761719 143.050781 169.707031 143.105469 169.707031 143.105469 C 169.601562 143.210938 169.496094 143.316406 169.339844 143.367188 C 169.179688 143.421875 169.128906 143.472656 168.96875 143.421875 C 168.96875 143.421875 168.917969 143.367188 168.863281 143.421875 Z M 198.496094 162.085938 C 198.179688 162.085938 197.96875 161.980469 197.757812 161.769531 C 197.703125 161.714844 197.652344 161.664062 197.546875 161.558594 C 188.109375 146.003906 195.910156 131.136719 195.964844 130.980469 C 196.121094 130.714844 196.4375 130.503906 196.703125 130.453125 C 197.070312 130.398438 197.335938 130.558594 197.546875 130.769531 L 206.507812 141.3125 L 220.320312 140.152344 C 220.691406 140.101562 220.953125 140.257812 221.21875 140.523438 C 221.429688 140.730469 221.480469 141.101562 221.375 141.417969 C 221.164062 142.050781 216.316406 157.550781 198.652344 161.925781 C 198.652344 162.03125 198.601562 162.085938 198.496094 162.085938 Z M 197.175781 133.351562 C 195.648438 137.199219 192.273438 148.273438 199.023438 159.976562 C 212.042969 156.445312 217.476562 146.164062 219.109375 142.417969 L 206.351562 143.472656 C 206.351562 143.472656 206.246094 143.472656 206.246094 143.472656 C 206.140625 143.472656 205.980469 143.421875 205.875 143.421875 C 205.71875 143.367188 205.613281 143.261719 205.558594 143.210938 C 205.558594 143.210938 205.507812 143.15625 205.507812 143.15625 Z M 197.175781 133.351562 " fill-opacity="1" fill-rule="nonzero"/><path fill="#f6b8de" d="M 203.503906 226.882812 C 203.398438 226.882812 203.292969 226.882812 203.238281 226.828125 C 202.816406 226.722656 193.960938 224.191406 187.582031 213.066406 C 181.203125 224.191406 172.292969 226.671875 171.921875 226.828125 C 171.660156 226.882812 171.449219 226.882812 171.289062 226.828125 C 171.078125 226.722656 170.921875 226.566406 170.761719 226.40625 C 170.550781 226.089844 166.019531 218.078125 169.339844 205.6875 C 157.214844 208.957031 149.199219 204.632812 148.617188 204.261719 C 148.566406 204.210938 148.515625 204.15625 148.410156 204.15625 C 148.355469 204.105469 148.25 204 148.25 203.894531 C 148.144531 203.683594 148.09375 203.417969 148.144531 203.15625 C 148.25 202.734375 150.78125 193.875 161.90625 187.496094 C 150.832031 181.171875 148.355469 172.261719 148.25 171.839844 C 148.195312 171.574219 148.195312 171.363281 148.25 171.207031 C 148.355469 170.996094 148.511719 170.835938 148.671875 170.679688 C 148.988281 170.46875 157.003906 165.933594 169.390625 169.253906 C 166.070312 156.867188 170.605469 148.851562 170.816406 148.535156 C 170.921875 148.324219 171.078125 148.167969 171.34375 148.113281 C 171.554688 148.007812 171.765625 148.007812 171.976562 148.113281 C 172.398438 148.21875 181.253906 150.75 187.632812 161.769531 C 193.960938 150.695312 202.871094 148.21875 203.292969 148.113281 C 203.554688 148.0625 203.765625 148.0625 203.925781 148.113281 C 204.136719 148.21875 204.292969 148.378906 204.453125 148.535156 C 204.664062 148.851562 209.199219 156.867188 205.875 169.253906 C 218.003906 165.988281 226.015625 170.308594 226.597656 170.679688 C 226.648438 170.730469 226.703125 170.785156 226.808594 170.785156 C 226.859375 170.835938 226.964844 170.941406 226.964844 171.046875 C 227.070312 171.257812 227.125 171.523438 227.070312 171.785156 C 226.964844 172.207031 224.433594 181.066406 213.414062 187.445312 C 224.539062 193.824219 227.019531 202.734375 227.175781 203.105469 C 227.230469 203.367188 227.230469 203.578125 227.175781 203.734375 C 227.070312 203.945312 226.914062 204.105469 226.753906 204.261719 C 226.4375 204.472656 218.371094 209.0625 205.929688 205.6875 C 208.933594 216.917969 205.453125 224.507812 204.664062 226.144531 C 204.664062 226.144531 204.609375 226.195312 204.664062 226.25 C 204.347656 226.566406 203.925781 226.882812 203.503906 226.882812 Z M 171.816406 204.472656 C 168.496094 214.859375 171.183594 222.398438 172.1875 224.667969 C 174.558594 223.769531 181.730469 220.292969 186.683594 210.695312 C 186.84375 210.328125 187.265625 210.117188 187.632812 210.167969 C 188.054688 210.167969 188.371094 210.378906 188.582031 210.695312 C 193.539062 220.292969 200.605469 223.769531 203.03125 224.71875 C 204.03125 222.453125 206.71875 214.914062 203.398438 204.527344 C 203.1875 204 203.503906 203.472656 204.03125 203.261719 C 204.347656 203.15625 204.609375 203.210938 204.875 203.367188 C 215.15625 206.582031 222.640625 203.945312 224.910156 202.945312 C 224.011719 200.574219 220.535156 193.402344 210.9375 188.445312 C 210.886719 188.394531 210.726562 188.339844 210.675781 188.289062 C 210.621094 188.234375 210.515625 188.128906 210.515625 188.023438 C 210.253906 187.550781 210.464844 186.917969 210.9375 186.652344 C 220.640625 181.699219 224.066406 174.476562 224.960938 172.207031 C 222.695312 171.207031 215.15625 168.515625 204.769531 171.839844 C 204.664062 171.839844 204.609375 171.890625 204.503906 171.890625 C 204.398438 171.890625 204.242188 171.839844 204.136719 171.839844 C 203.976562 171.785156 203.925781 171.734375 203.820312 171.628906 C 203.714844 171.523438 203.609375 171.417969 203.609375 171.3125 C 203.609375 171.207031 203.554688 171.046875 203.554688 170.941406 C 203.554688 170.835938 203.554688 170.730469 203.609375 170.679688 C 206.929688 160.292969 204.242188 152.753906 203.238281 150.484375 C 200.867188 151.382812 193.699219 154.863281 188.742188 164.457031 C 188.6875 164.511719 188.636719 164.667969 188.582031 164.722656 C 188.476562 164.828125 188.425781 164.878906 188.265625 164.933594 C 188.109375 164.984375 188.003906 164.984375 187.84375 165.039062 C 187.738281 165.039062 187.582031 164.984375 187.421875 164.933594 C 187.265625 164.878906 187.210938 164.828125 187.105469 164.722656 C 187.054688 164.667969 186.949219 164.5625 186.949219 164.457031 C 181.992188 154.757812 174.769531 151.328125 172.449219 150.484375 C 171.449219 152.753906 168.757812 160.292969 172.082031 170.679688 C 172.082031 170.785156 172.132812 170.835938 172.132812 170.941406 C 172.132812 171.046875 172.082031 171.207031 172.082031 171.3125 C 172.027344 171.46875 171.921875 171.574219 171.871094 171.628906 C 171.765625 171.734375 171.660156 171.839844 171.554688 171.839844 C 171.449219 171.839844 171.289062 171.890625 171.183594 171.890625 C 171.078125 171.890625 170.972656 171.890625 170.921875 171.839844 C 160.535156 168.515625 152.996094 171.207031 150.726562 172.207031 C 151.625 174.582031 155.105469 181.75 164.699219 186.707031 C 165.175781 186.96875 165.386719 187.601562 165.121094 188.078125 C 165.070312 188.128906 165.015625 188.289062 164.964844 188.339844 C 164.859375 188.445312 164.804688 188.5 164.648438 188.550781 C 154.945312 193.507812 151.519531 200.730469 150.621094 203 C 152.890625 204 160.429688 206.6875 170.816406 203.367188 C 170.921875 203.367188 171.078125 203.3125 171.183594 203.3125 C 171.289062 203.3125 171.449219 203.367188 171.554688 203.367188 C 171.710938 203.417969 171.816406 203.523438 171.871094 203.578125 C 171.976562 203.683594 172.082031 203.789062 172.082031 203.894531 C 172.082031 204 172.132812 204.15625 172.132812 204.261719 C 171.816406 204.261719 171.816406 204.367188 171.816406 204.472656 Z M 171.816406 204.472656 " fill-opacity="1" fill-rule="nonzero"/><path fill="#f6b8de" d="M 187.582031 229.941406 C 187.371094 229.941406 187.054688 229.835938 186.894531 229.675781 L 179.355469 222.136719 C 178.988281 221.765625 178.988281 221.136719 179.355469 220.765625 C 179.726562 220.398438 180.359375 220.398438 180.726562 220.765625 L 187.632812 227.671875 L 194.488281 220.820312 C 194.855469 220.449219 195.488281 220.449219 195.859375 220.820312 C 196.226562 221.1875 196.226562 221.820312 195.859375 222.1875 L 188.320312 229.730469 C 188.109375 229.835938 187.84375 229.992188 187.582031 229.941406 Z M 216.894531 217.8125 C 216.84375 217.761719 216.683594 217.8125 216.632812 217.761719 L 206.246094 217.8125 C 205.71875 217.8125 205.242188 217.339844 205.242188 216.8125 C 205.242188 216.285156 205.71875 215.808594 206.246094 215.808594 L 215.894531 215.757812 L 215.945312 206.109375 C 215.945312 205.582031 216.421875 205.105469 216.949219 205.105469 C 217.476562 205.105469 217.949219 205.582031 217.949219 206.109375 L 217.898438 216.496094 C 217.898438 216.601562 217.949219 216.652344 217.949219 216.757812 C 217.949219 217.074219 217.84375 217.285156 217.632812 217.496094 C 217.421875 217.707031 217.160156 217.761719 216.894531 217.8125 Z M 168.917969 217.8125 L 158.214844 217.761719 C 158.109375 217.761719 157.953125 217.707031 157.847656 217.707031 C 157.636719 217.601562 157.476562 217.339844 157.371094 217.128906 C 157.371094 217.023438 157.320312 216.96875 157.371094 216.917969 L 157.320312 206.214844 C 157.320312 205.6875 157.792969 205.210938 158.320312 205.210938 C 158.847656 205.210938 159.320312 205.6875 159.320312 206.214844 L 159.320312 215.914062 L 169.023438 215.914062 C 169.550781 215.914062 170.023438 216.390625 170.023438 216.917969 C 169.917969 217.339844 169.496094 217.761719 168.917969 217.8125 Z M 221.535156 195.984375 C 221.324219 195.984375 221.007812 195.878906 220.847656 195.722656 C 220.480469 195.351562 220.480469 194.71875 220.847656 194.351562 L 227.703125 187.496094 L 220.796875 180.589844 C 220.429688 180.222656 220.425781 179.589844 220.796875 179.21875 C 221.164062 178.851562 221.796875 178.851562 222.167969 179.21875 L 229.707031 186.757812 C 230.074219 187.128906 230.074219 187.761719 229.707031 188.128906 L 222.167969 195.667969 C 222.0625 195.878906 221.796875 196.039062 221.535156 195.984375 Z M 153.628906 195.984375 C 153.417969 195.984375 153.101562 195.878906 152.941406 195.722656 L 145.402344 188.183594 C 145.035156 187.8125 145.035156 187.179688 145.402344 186.8125 L 152.941406 179.273438 C 153.3125 178.902344 153.945312 178.902344 154.3125 179.273438 C 154.683594 179.640625 154.683594 180.273438 154.3125 180.644531 L 147.460938 187.496094 L 154.367188 194.402344 C 154.734375 194.773438 154.734375 195.40625 154.367188 195.773438 C 154.15625 195.878906 153.890625 196.039062 153.628906 195.984375 Z M 217 169.730469 C 216.472656 169.730469 216 169.253906 216 168.726562 L 216 159.027344 L 206.296875 159.027344 C 205.769531 159.027344 205.296875 158.554688 205.296875 158.027344 C 205.296875 157.5 205.769531 157.023438 206.296875 157.023438 L 217 157.078125 C 217.421875 157.078125 217.84375 157.394531 217.949219 157.816406 C 217.949219 157.921875 218.003906 157.972656 218.003906 158.078125 L 218.054688 168.78125 C 217.949219 169.308594 217.527344 169.730469 217 169.730469 Z M 158.214844 169.78125 C 157.6875 169.78125 157.214844 169.308594 157.214844 168.78125 L 157.265625 158.394531 C 157.265625 158.289062 157.214844 158.238281 157.214844 158.132812 C 157.214844 157.816406 157.320312 157.605469 157.53125 157.394531 C 157.738281 157.183594 157.898438 157.023438 158.265625 157.078125 C 158.371094 157.078125 158.476562 157.078125 158.53125 157.128906 L 168.917969 157.078125 C 169.445312 157.078125 169.917969 157.550781 169.917969 158.078125 C 169.917969 158.605469 169.445312 159.078125 168.917969 159.078125 L 159.269531 159.132812 L 159.214844 168.78125 C 159.214844 169.308594 158.742188 169.78125 158.214844 169.78125 Z M 195.121094 154.492188 C 194.910156 154.492188 194.59375 154.386719 194.433594 154.230469 L 187.527344 147.324219 L 180.675781 154.175781 C 180.304688 154.546875 179.671875 154.546875 179.304688 154.175781 C 178.933594 153.808594 178.933594 153.175781 179.304688 152.804688 L 186.84375 145.265625 C 187.210938 144.898438 187.84375 144.898438 188.214844 145.265625 L 195.753906 152.804688 C 196.121094 153.175781 196.121094 153.808594 195.753906 154.175781 C 195.648438 154.386719 195.4375 154.492188 195.121094 154.492188 Z M 195.121094 154.492188 " fill-opacity="1" fill-rule="nonzero"/><path fill="#f6b8de" d="M 198.496094 214.703125 C 198.390625 214.703125 198.230469 214.648438 198.125 214.648438 C 197.96875 214.597656 197.863281 214.492188 197.757812 214.386719 C 197.703125 214.332031 197.652344 214.28125 197.652344 214.28125 L 187.582031 199.675781 L 177.511719 214.28125 C 177.457031 214.332031 177.457031 214.332031 177.40625 214.386719 C 177.300781 214.492188 177.195312 214.597656 177.035156 214.648438 C 176.878906 214.703125 176.773438 214.703125 176.613281 214.753906 C 176.507812 214.753906 176.40625 214.753906 176.300781 214.648438 C 176.195312 214.648438 176.089844 214.542969 175.984375 214.4375 C 175.878906 214.332031 175.773438 214.226562 175.71875 214.070312 C 175.667969 213.910156 175.667969 213.804688 175.613281 213.648438 C 175.613281 213.542969 175.613281 213.542969 175.667969 213.488281 L 178.882812 196.039062 L 161.429688 199.253906 C 161.378906 199.308594 161.324219 199.253906 161.273438 199.308594 C 161.167969 199.308594 160.957031 199.308594 160.851562 199.203125 C 160.691406 199.148438 160.585938 199.042969 160.480469 198.9375 C 160.375 198.832031 160.324219 198.78125 160.269531 198.621094 C 160.21875 198.464844 160.164062 198.410156 160.21875 198.253906 C 160.21875 198.148438 160.21875 197.9375 160.324219 197.832031 C 160.375 197.671875 160.480469 197.566406 160.585938 197.460938 C 160.640625 197.410156 160.640625 197.410156 160.691406 197.355469 L 175.296875 187.285156 L 160.691406 177.214844 C 160.640625 177.164062 160.640625 177.164062 160.585938 177.109375 C 160.480469 177.003906 160.375 176.898438 160.324219 176.742188 C 160.269531 176.585938 160.269531 176.480469 160.21875 176.320312 C 160.21875 176.214844 160.269531 176.058594 160.269531 175.953125 C 160.269531 175.847656 160.375 175.742188 160.480469 175.636719 C 160.585938 175.53125 160.691406 175.425781 160.851562 175.371094 C 161.007812 175.320312 161.113281 175.320312 161.273438 175.265625 C 161.324219 175.320312 161.378906 175.265625 161.429688 175.320312 L 178.882812 178.535156 L 175.667969 161.082031 C 175.613281 161.03125 175.667969 160.976562 175.613281 160.925781 C 175.613281 160.820312 175.613281 160.609375 175.71875 160.503906 C 175.773438 160.34375 175.878906 160.238281 175.984375 160.132812 C 176.089844 160.027344 176.140625 159.976562 176.300781 159.921875 C 176.402344 159.921875 176.507812 159.816406 176.667969 159.871094 C 176.773438 159.871094 176.984375 159.871094 177.089844 159.976562 C 177.246094 160.027344 177.351562 160.132812 177.40625 160.1875 C 177.457031 160.238281 177.511719 160.292969 177.511719 160.292969 L 187.582031 174.898438 L 197.546875 160.398438 C 197.597656 160.34375 197.652344 160.1875 197.703125 160.132812 C 198.074219 159.765625 198.546875 159.710938 199.023438 159.976562 C 199.390625 160.238281 199.550781 160.820312 199.339844 161.242188 L 196.175781 178.535156 L 213.46875 175.371094 C 213.890625 175.160156 214.417969 175.265625 214.734375 175.6875 C 215.050781 176.109375 214.945312 176.636719 214.574219 177.003906 C 214.46875 177.109375 214.417969 177.164062 214.3125 177.164062 L 199.8125 187.128906 L 214.417969 197.199219 C 214.46875 197.25 214.46875 197.25 214.523438 197.304688 C 214.628906 197.410156 214.734375 197.515625 214.785156 197.671875 C 214.839844 197.832031 214.839844 197.9375 214.890625 198.09375 C 214.890625 198.199219 214.839844 198.359375 214.839844 198.464844 C 214.839844 198.570312 214.734375 198.675781 214.628906 198.78125 C 214.523438 198.886719 214.417969 198.992188 214.257812 199.042969 C 214.101562 199.097656 213.941406 199.148438 213.835938 199.148438 C 213.730469 199.148438 213.730469 199.148438 213.679688 199.097656 L 196.226562 195.878906 L 199.445312 213.332031 C 199.496094 213.382812 199.445312 213.4375 199.496094 213.488281 C 199.496094 213.59375 199.496094 213.804688 199.390625 213.910156 C 199.339844 214.070312 199.234375 214.175781 199.128906 214.28125 C 199.023438 214.386719 198.96875 214.4375 198.8125 214.492188 C 198.8125 214.703125 198.652344 214.753906 198.496094 214.703125 C 198.546875 214.753906 198.546875 214.753906 198.496094 214.703125 Z M 188.425781 197.355469 L 196.703125 209.324219 L 194.066406 194.984375 C 194.011719 194.929688 194.066406 194.878906 194.066406 194.773438 C 194.066406 194.667969 194.066406 194.5625 194.117188 194.40625 C 194.171875 194.246094 194.277344 194.140625 194.382812 194.035156 C 194.488281 193.929688 194.59375 193.824219 194.75 193.773438 C 194.855469 193.773438 194.910156 193.71875 195.121094 193.71875 C 195.226562 193.71875 195.226562 193.71875 195.332031 193.71875 L 209.671875 196.355469 L 197.703125 188.078125 C 197.652344 188.023438 197.597656 187.972656 197.546875 187.917969 C 197.441406 187.8125 197.386719 187.761719 197.335938 187.601562 C 197.28125 187.445312 197.230469 187.285156 197.230469 187.179688 C 197.230469 187.074219 197.28125 186.917969 197.335938 186.757812 C 197.335938 186.652344 197.441406 186.546875 197.546875 186.441406 C 197.597656 186.390625 197.652344 186.335938 197.703125 186.285156 L 209.621094 178.058594 L 195.382812 180.695312 C 195.332031 180.75 195.277344 180.695312 195.171875 180.695312 C 195.066406 180.695312 194.960938 180.695312 194.804688 180.644531 C 194.644531 180.589844 194.539062 180.484375 194.433594 180.378906 C 194.328125 180.273438 194.222656 180.167969 194.171875 180.011719 C 194.171875 179.90625 194.117188 179.746094 194.117188 179.640625 C 194.117188 179.535156 194.117188 179.535156 194.117188 179.429688 L 196.753906 165.195312 L 188.53125 177.109375 C 188.476562 177.164062 188.425781 177.214844 188.371094 177.269531 C 188.265625 177.375 188.214844 177.425781 188.109375 177.425781 C 187.949219 177.480469 187.792969 177.53125 187.6875 177.53125 C 187.582031 177.53125 187.421875 177.480469 187.265625 177.425781 C 187.160156 177.425781 187.054688 177.320312 186.949219 177.214844 C 186.894531 177.164062 186.84375 177.109375 186.789062 177.058594 L 178.511719 165.089844 L 181.148438 179.429688 C 181.203125 179.484375 181.148438 179.535156 181.148438 179.640625 C 181.148438 179.746094 181.148438 179.851562 181.097656 180.011719 C 181.042969 180.167969 180.9375 180.273438 180.886719 180.328125 C 180.78125 180.433594 180.675781 180.539062 180.515625 180.589844 C 180.410156 180.589844 180.359375 180.644531 180.148438 180.644531 C 180.042969 180.644531 180.042969 180.644531 179.9375 180.644531 L 165.597656 178.007812 L 177.5625 186.285156 C 177.617188 186.335938 177.667969 186.390625 177.722656 186.441406 C 177.828125 186.546875 177.878906 186.601562 177.933594 186.757812 C 177.984375 186.917969 178.039062 187.074219 178.039062 187.179688 C 178.039062 187.285156 177.984375 187.445312 177.933594 187.601562 C 177.933594 187.707031 177.828125 187.8125 177.722656 187.917969 C 177.667969 187.972656 177.617188 188.023438 177.5625 188.078125 L 165.597656 196.355469 L 179.9375 193.71875 C 179.988281 193.667969 180.09375 193.667969 180.148438 193.71875 C 180.253906 193.71875 180.359375 193.71875 180.515625 193.773438 C 180.675781 193.824219 180.78125 193.929688 180.886719 194.035156 C 180.992188 194.140625 181.097656 194.246094 181.148438 194.40625 C 181.148438 194.507812 181.203125 194.667969 181.203125 194.773438 C 181.203125 194.878906 181.203125 194.878906 181.203125 194.984375 L 178.566406 209.324219 L 186.84375 197.355469 C 186.894531 197.304688 186.949219 197.25 187 197.199219 C 187.105469 197.09375 187.160156 197.039062 187.316406 196.988281 C 187.476562 196.933594 187.582031 196.933594 187.738281 196.882812 C 187.84375 196.882812 188.003906 196.933594 188.160156 196.988281 C 188.265625 196.988281 188.371094 197.09375 188.476562 197.199219 C 188.320312 197.25 188.371094 197.304688 188.425781 197.355469 Z M 188.425781 197.355469 " fill-opacity="1" fill-rule="nonzero"/></svg>